<svg id="visual" viewBox="0 0 900 600" width="900" height="600" xmlns="http://www.w3.org/2000/svg" xmlns:xlink="http://www.w3.org/1999/xlink" version="1.1"><rect x="0" y="0" width="900" height="600" fill="#001220"></rect><defs><linearGradient id="grad1_0" x1="33.3%" y1="0%" x2="100%" y2="100%"><stop offset="20%" stop-color="#001220" stop-opacity="1"></stop><stop offset="80%" stop-color="#001220" stop-opacity="1"></stop></linearGradient></defs><defs><linearGradient id="grad2_0" x1="0%" y1="0%" x2="66.7%" y2="100%"><stop offset="20%" stop-color="#001220" stop-opacity="1"></stop><stop offset="80%" stop-color="#001220" stop-opacity="1"></stop></linearGradient></defs><g transform="translate(900, 0)"><path d="M0 486.7C-40.2 443.6 -80.4 400.4 -122.4 376.6C-164.3 352.8 -208 348.3 -236.3 325.2C-264.5 302.1 -277.3 260.4 -318.8 231.6C-360.2 202.8 -430.2 186.9 -462.9 150.4C-495.7 114 -491.2 57 -486.7 0L0 0Z" fill="#8E05C2"></path></g><g transform="translate(0, 600)"><path d="M0 -486.7C53.3 -487.1 106.6 -487.5 150.4 -462.9C194.2 -438.3 228.5 -388.8 248.6 -342.2C268.7 -295.6 274.6 -252 304.2 -221C333.7 -190 386.9 -171.6 421.3 -136.9C455.7 -102.2 471.2 -51.1 486.7 0L0 0Z" fill="#8E05C2"></path></g></svg>