<svg id="visual" viewBox="0 0 900 600" width="900" height="600" xmlns="http://www.w3.org/2000/svg" xmlns:xlink="http://www.w3.org/1999/xlink" version="1.1"><rect x="0" y="0" width="900" height="600" fill="#b3b3b3"></rect><defs><linearGradient id="grad1_0" x1="33.3%" y1="0%" x2="100%" y2="100%"><stop offset="20%" stop-color="#3e065f" stop-opacity="1"></stop><stop offset="80%" stop-color="#3e065f" stop-opacity="1"></stop></linearGradient></defs><defs><linearGradient id="grad1_1" x1="33.3%" y1="0%" x2="100%" y2="100%"><stop offset="20%" stop-color="#3e065f" stop-opacity="1"></stop><stop offset="80%" stop-color="#b3b3b3" stop-opacity="1"></stop></linearGradient></defs><defs><linearGradient id="grad2_0" x1="0%" y1="0%" x2="66.7%" y2="100%"><stop offset="20%" stop-color="#3e065f" stop-opacity="1"></stop><stop offset="80%" stop-color="#3e065f" stop-opacity="1"></stop></linearGradient></defs><defs><linearGradient id="grad2_1" x1="0%" y1="0%" x2="66.7%" y2="100%"><stop offset="20%" stop-color="#b3b3b3" stop-opacity="1"></stop><stop offset="80%" stop-color="#3e065f" stop-opacity="1"></stop></linearGradient></defs><g transform="translate(900, 0)"><path d="M0 459.7C-63.6 457 -127.3 454.2 -175.9 424.7C-224.6 395.2 -258.2 338.9 -292 292C-325.9 245.2 -360 207.8 -388 160.7C-416 113.6 -437.9 56.8 -459.7 0L0 0Z" fill="#7b5e89"></path><path d="M0 229.9C-31.8 228.5 -63.6 227.1 -88 212.4C-112.3 197.6 -129.1 169.4 -146 146C-163 122.6 -180 103.9 -194 80.4C-208 56.8 -218.9 28.4 -229.9 0L0 0Z" fill="#3e065f"></path></g><g transform="translate(0, 600)"><path d="M0 -459.7C56 -440.3 112.1 -420.8 164.9 -398.2C217.8 -375.5 267.5 -349.7 313.2 -313.2C359 -276.8 401 -229.9 424.7 -175.9C448.5 -122 454.1 -61 459.7 0L0 0Z" fill="#7b5e89"></path><path d="M0 -229.9C28 -220.1 56 -210.4 82.5 -199.1C108.9 -187.8 133.7 -174.8 156.6 -156.6C179.5 -138.4 200.5 -114.9 212.4 -88C224.2 -61 227 -30.5 229.9 0L0 0Z" fill="#3e065f"></path></g></svg>