<svg id="visual" viewBox="0 0 900 600" width="900" height="600" xmlns="http://www.w3.org/2000/svg" xmlns:xlink="http://www.w3.org/1999/xlink" version="1.1"><rect x="0" y="0" width="900" height="600" fill="#bbc0ca"></rect><defs><linearGradient id="grad1_0" x1="33.3%" y1="0%" x2="100%" y2="100%"><stop offset="20%" stop-color="#3e065f" stop-opacity="1"></stop><stop offset="80%" stop-color="#3e065f" stop-opacity="1"></stop></linearGradient></defs><defs><linearGradient id="grad1_1" x1="33.3%" y1="0%" x2="100%" y2="100%"><stop offset="20%" stop-color="#3e065f" stop-opacity="1"></stop><stop offset="80%" stop-color="#bbc0ca" stop-opacity="1"></stop></linearGradient></defs><defs><linearGradient id="grad2_0" x1="0%" y1="0%" x2="66.7%" y2="100%"><stop offset="20%" stop-color="#3e065f" stop-opacity="1"></stop><stop offset="80%" stop-color="#3e065f" stop-opacity="1"></stop></linearGradient></defs><defs><linearGradient id="grad2_1" x1="0%" y1="0%" x2="66.7%" y2="100%"><stop offset="20%" stop-color="#bbc0ca" stop-opacity="1"></stop><stop offset="80%" stop-color="#3e065f" stop-opacity="1"></stop></linearGradient></defs><g transform="translate(900, 0)"><path d="M0 459.7C-32 388.3 -64 316.9 -126.7 305.8C-189.4 294.7 -282.8 343.8 -325.1 325.1C-367.3 306.3 -358.4 219.7 -372.3 154.2C-386.2 88.7 -423 44.4 -459.7 0L0 0Z" fill="#69699d"></path><path d="M0 229.9C-16 194.2 -32 158.5 -63.3 152.9C-94.7 147.3 -141.4 171.9 -162.5 162.5C-183.7 153.2 -179.2 109.9 -186.2 77.1C-193.1 44.4 -211.5 22.2 -229.9 0L0 0Z" fill="#3e065f"></path></g><g transform="translate(0, 600)"><path d="M0 -459.7C71.4 -464.6 142.8 -469.5 175.9 -424.7C209.1 -379.9 204 -285.4 239 -239C274 -192.6 349.2 -194.4 392.6 -162.6C436.1 -130.8 447.9 -65.4 459.7 0L0 0Z" fill="#69699d"></path><path d="M0 -229.9C35.7 -232.3 71.4 -234.8 88 -212.4C104.5 -190 102 -142.7 119.5 -119.5C137 -96.3 174.6 -97.2 196.3 -81.3C218.1 -65.4 224 -32.7 229.9 0L0 0Z" fill="#3e065f"></path></g></svg>