<svg id="visual" viewBox="0 0 900 600" width="900" height="600" xmlns="http://www.w3.org/2000/svg" xmlns:xlink="http://www.w3.org/1999/xlink" version="1.1"><rect x="0" y="0" width="900" height="600" fill="#000"></rect><path d="M0 247L13.7 246.8C27.3 246.7 54.7 246.3 82 233.7C109.3 221 136.7 196 163.8 190.2C191 184.3 218 197.7 245.2 210.3C272.3 223 299.7 235 327 228.7C354.3 222.3 381.7 197.7 409 190.2C436.3 182.7 463.7 192.3 491 196.2C518.3 200 545.7 198 573 204.7C600.3 211.3 627.7 226.7 654.8 227.7C682 228.7 709 215.3 736.2 211.8C763.3 208.3 790.7 214.7 818 220.7C845.3 226.7 872.7 232.3 886.3 235.2L900 238L900 0L886.3 0C872.7 0 845.3 0 818 0C790.7 0 763.3 0 736.2 0C709 0 682 0 654.8 0C627.7 0 600.3 0 573 0C545.7 0 518.3 0 491 0C463.7 0 436.3 0 409 0C381.7 0 354.3 0 327 0C299.7 0 272.3 0 245.2 0C218 0 191 0 163.8 0C136.7 0 109.3 0 82 0C54.7 0 27.3 0 13.7 0L0 0Z" fill="#b931fc"></path><path d="M0 183L13.7 181.3C27.3 179.7 54.7 176.3 82 179.7C109.3 183 136.7 193 163.8 195.7C191 198.3 218 193.7 245.2 189.3C272.3 185 299.7 181 327 175.2C354.3 169.3 381.7 161.7 409 157C436.3 152.3 463.7 150.7 491 155.7C518.3 160.7 545.7 172.3 573 180C600.3 187.7 627.7 191.3 654.8 190.8C682 190.3 709 185.7 736.2 186.3C763.3 187 790.7 193 818 195.5C845.3 198 872.7 197 886.3 196.5L900 196L900 0L886.3 0C872.7 0 845.3 0 818 0C790.7 0 763.3 0 736.2 0C709 0 682 0 654.8 0C627.7 0 600.3 0 573 0C545.7 0 518.3 0 491 0C463.7 0 436.3 0 409 0C381.7 0 354.3 0 327 0C299.7 0 272.3 0 245.2 0C218 0 191 0 163.8 0C136.7 0 109.3 0 82 0C54.7 0 27.3 0 13.7 0L0 0Z" fill="#9e27df"></path><path d="M0 115L13.7 117.7C27.3 120.3 54.7 125.7 82 128.7C109.3 131.7 136.7 132.3 163.8 131C191 129.7 218 126.3 245.2 123.8C272.3 121.3 299.7 119.7 327 127.2C354.3 134.7 381.7 151.3 409 153C436.3 154.7 463.7 141.3 491 142.7C518.3 144 545.7 160 573 168.3C600.3 176.7 627.7 177.3 654.8 176.3C682 175.3 709 172.7 736.2 166.3C763.3 160 790.7 150 818 150.7C845.3 151.3 872.7 162.7 886.3 168.3L900 174L900 0L886.3 0C872.7 0 845.3 0 818 0C790.7 0 763.3 0 736.2 0C709 0 682 0 654.8 0C627.7 0 600.3 0 573 0C545.7 0 518.3 0 491 0C463.7 0 436.3 0 409 0C381.7 0 354.3 0 327 0C299.7 0 272.3 0 245.2 0C218 0 191 0 163.8 0C136.7 0 109.3 0 82 0C54.7 0 27.3 0 13.7 0L0 0Z" fill="#841dc3"></path><path d="M0 112L13.7 109.2C27.3 106.3 54.7 100.7 82 98C109.3 95.3 136.7 95.7 163.8 97.3C191 99 218 102 245.2 101.8C272.3 101.7 299.7 98.3 327 104C354.3 109.7 381.7 124.3 409 131.2C436.3 138 463.7 137 491 132.7C518.3 128.3 545.7 120.7 573 118.5C600.3 116.3 627.7 119.7 654.8 119.5C682 119.3 709 115.7 736.2 111.5C763.3 107.3 790.7 102.7 818 102.8C845.3 103 872.7 108 886.3 110.5L900 113L900 0L886.3 0C872.7 0 845.3 0 818 0C790.7 0 763.3 0 736.2 0C709 0 682 0 654.8 0C627.7 0 600.3 0 573 0C545.7 0 518.3 0 491 0C463.7 0 436.3 0 409 0C381.7 0 354.3 0 327 0C299.7 0 272.3 0 245.2 0C218 0 191 0 163.8 0C136.7 0 109.3 0 82 0C54.7 0 27.3 0 13.7 0L0 0Z" fill="#6c13a7"></path><path d="M0 79L13.7 74.5C27.3 70 54.7 61 82 60.3C109.3 59.7 136.7 67.3 163.8 73C191 78.7 218 82.3 245.2 81.5C272.3 80.7 299.7 75.3 327 73.3C354.3 71.3 381.7 72.7 409 74C436.3 75.3 463.7 76.7 491 78.8C518.3 81 545.7 84 573 86.5C600.3 89 627.7 91 654.8 92.3C682 93.7 709 94.3 736.2 93.5C763.3 92.7 790.7 90.3 818 89.5C845.3 88.7 872.7 89.3 886.3 89.7L900 90L900 0L886.3 0C872.7 0 845.3 0 818 0C790.7 0 763.3 0 736.2 0C709 0 682 0 654.8 0C627.7 0 600.3 0 573 0C545.7 0 518.3 0 491 0C463.7 0 436.3 0 409 0C381.7 0 354.3 0 327 0C299.7 0 272.3 0 245.2 0C218 0 191 0 163.8 0C136.7 0 109.3 0 82 0C54.7 0 27.3 0 13.7 0L0 0Z" fill="#55088c"></path><path d="M0 28L13.7 27.3C27.3 26.7 54.7 25.3 82 30C109.3 34.7 136.7 45.3 163.8 48.7C191 52 218 48 245.2 44C272.3 40 299.7 36 327 39C354.3 42 381.7 52 409 51.3C436.3 50.7 463.7 39.3 491 39.3C518.3 39.3 545.7 50.7 573 52.8C600.3 55 627.7 48 654.8 42.7C682 37.3 709 33.7 736.2 35.5C763.3 37.3 790.7 44.7 818 45.2C845.3 45.7 872.7 39.3 886.3 36.2L900 33L900 0L886.3 0C872.7 0 845.3 0 818 0C790.7 0 763.3 0 736.2 0C709 0 682 0 654.8 0C627.7 0 600.3 0 573 0C545.7 0 518.3 0 491 0C463.7 0 436.3 0 409 0C381.7 0 354.3 0 327 0C299.7 0 272.3 0 245.2 0C218 0 191 0 163.8 0C136.7 0 109.3 0 82 0C54.7 0 27.3 0 13.7 0L0 0Z" fill="#3f0071"></path></svg>