<svg id="visual" viewBox="0 0 900 600" width="900" height="600" xmlns="http://www.w3.org/2000/svg" xmlns:xlink="http://www.w3.org/1999/xlink" version="1.1"><rect x="0" y="0" width="900" height="600" fill="#000"></rect><path d="M0 83L8.3 76.8C16.7 70.7 33.3 58.3 50 54.2C66.7 50 83.3 54 100 52.7C116.7 51.3 133.3 44.7 150 48.5C166.7 52.3 183.3 66.7 200 78.2C216.7 89.7 233.3 98.3 250 94.7C266.7 91 283.3 75 300 69.3C316.7 63.7 333.3 68.3 350 72C366.7 75.7 383.3 78.3 400 78.7C416.7 79 433.3 77 450 78.3C466.7 79.7 483.3 84.3 500 89.7C516.7 95 533.3 101 550 101C566.7 101 583.3 95 600 91.3C616.7 87.7 633.3 86.3 650 82.2C666.7 78 683.3 71 700 61.5C716.7 52 733.3 40 750 37.7C766.7 35.3 783.3 42.7 800 42.7C816.7 42.7 833.3 35.3 850 42C866.7 48.7 883.3 69.3 891.7 79.7L900 90L900 0L891.7 0C883.3 0 866.7 0 850 0C833.3 0 816.7 0 800 0C783.3 0 766.7 0 750 0C733.3 0 716.7 0 700 0C683.3 0 666.7 0 650 0C633.3 0 616.7 0 600 0C583.3 0 566.7 0 550 0C533.3 0 516.7 0 500 0C483.3 0 466.7 0 450 0C433.3 0 416.7 0 400 0C383.3 0 366.7 0 350 0C333.3 0 316.7 0 300 0C283.3 0 266.7 0 250 0C233.3 0 216.7 0 200 0C183.3 0 166.7 0 150 0C133.3 0 116.7 0 100 0C83.3 0 66.7 0 50 0C33.3 0 16.7 0 8.3 0L0 0Z" fill="#b931fc"></path><path d="M0 43L8.3 45.7C16.7 48.3 33.3 53.7 50 60C66.7 66.3 83.3 73.7 100 72.3C116.7 71 133.3 61 150 60.5C166.7 60 183.3 69 200 75.3C216.7 81.7 233.3 85.3 250 80.8C266.7 76.3 283.3 63.7 300 62.8C316.7 62 333.3 73 350 73.7C366.7 74.3 383.3 64.7 400 63.2C416.7 61.7 433.3 68.3 450 64.3C466.7 60.3 483.3 45.7 500 44C516.7 42.3 533.3 53.7 550 60.3C566.7 67 583.3 69 600 71.8C616.7 74.7 633.3 78.3 650 81.3C666.7 84.3 683.3 86.7 700 77.3C716.7 68 733.3 47 750 44.8C766.7 42.7 783.3 59.3 800 59.7C816.7 60 833.3 44 850 37.8C866.7 31.7 883.3 35.3 891.7 37.2L900 39L900 0L891.7 0C883.3 0 866.7 0 850 0C833.3 0 816.7 0 800 0C783.3 0 766.7 0 750 0C733.3 0 716.7 0 700 0C683.3 0 666.7 0 650 0C633.3 0 616.7 0 600 0C583.3 0 566.7 0 550 0C533.3 0 516.7 0 500 0C483.3 0 466.7 0 450 0C433.3 0 416.7 0 400 0C383.3 0 366.7 0 350 0C333.3 0 316.7 0 300 0C283.3 0 266.7 0 250 0C233.3 0 216.7 0 200 0C183.3 0 166.7 0 150 0C133.3 0 116.7 0 100 0C83.3 0 66.7 0 50 0C33.3 0 16.7 0 8.3 0L0 0Z" fill="#9e27df"></path><path d="M0 59L8.3 56.7C16.7 54.3 33.3 49.7 50 44.3C66.7 39 83.3 33 100 37.2C116.7 41.3 133.3 55.7 150 61.3C166.7 67 183.3 64 200 60.7C216.7 57.3 233.3 53.7 250 54C266.7 54.3 283.3 58.7 300 54.7C316.7 50.7 333.3 38.3 350 31.7C366.7 25 383.3 24 400 29.7C416.7 35.3 433.3 47.7 450 56.5C466.7 65.3 483.3 70.7 500 63.8C516.7 57 533.3 38 550 36.3C566.7 34.7 583.3 50.3 600 59C616.7 67.7 633.3 69.3 650 64.7C666.7 60 683.3 49 700 48C716.7 47 733.3 56 750 53.8C766.7 51.7 783.3 38.3 800 31.8C816.7 25.3 833.3 25.7 850 30.7C866.7 35.7 883.3 45.3 891.7 50.2L900 55L900 0L891.7 0C883.3 0 866.7 0 850 0C833.3 0 816.7 0 800 0C783.3 0 766.7 0 750 0C733.3 0 716.7 0 700 0C683.3 0 666.7 0 650 0C633.3 0 616.7 0 600 0C583.3 0 566.7 0 550 0C533.3 0 516.7 0 500 0C483.3 0 466.7 0 450 0C433.3 0 416.7 0 400 0C383.3 0 366.7 0 350 0C333.3 0 316.7 0 300 0C283.3 0 266.7 0 250 0C233.3 0 216.7 0 200 0C183.3 0 166.7 0 150 0C133.3 0 116.7 0 100 0C83.3 0 66.7 0 50 0C33.3 0 16.7 0 8.3 0L0 0Z" fill="#841dc3"></path><path d="M0 43L8.3 44.5C16.7 46 33.3 49 50 50.7C66.7 52.3 83.3 52.7 100 46.2C116.7 39.7 133.3 26.3 150 24.3C166.7 22.3 183.3 31.7 200 36.7C216.7 41.7 233.3 42.3 250 37.7C266.7 33 283.3 23 300 26C316.7 29 333.3 45 350 50.5C366.7 56 383.3 51 400 50.7C416.7 50.3 433.3 54.7 450 50.5C466.7 46.3 483.3 33.7 500 26C516.7 18.3 533.3 15.7 550 19.7C566.7 23.7 583.3 34.3 600 38.8C616.7 43.3 633.3 41.7 650 40.8C666.7 40 683.3 40 700 39.3C716.7 38.7 733.3 37.3 750 39.5C766.7 41.7 783.3 47.3 800 45.3C816.7 43.3 833.3 33.7 850 30.5C866.7 27.3 883.3 30.7 891.7 32.3L900 34L900 0L891.7 0C883.3 0 866.7 0 850 0C833.3 0 816.7 0 800 0C783.3 0 766.7 0 750 0C733.3 0 716.7 0 700 0C683.3 0 666.7 0 650 0C633.3 0 616.7 0 600 0C583.3 0 566.7 0 550 0C533.3 0 516.7 0 500 0C483.3 0 466.7 0 450 0C433.3 0 416.7 0 400 0C383.3 0 366.7 0 350 0C333.3 0 316.7 0 300 0C283.3 0 266.7 0 250 0C233.3 0 216.7 0 200 0C183.3 0 166.7 0 150 0C133.3 0 116.7 0 100 0C83.3 0 66.7 0 50 0C33.3 0 16.7 0 8.3 0L0 0Z" fill="#6c13a7"></path><path d="M0 43L8.3 43C16.7 43 33.3 43 50 40.3C66.7 37.7 83.3 32.3 100 32.5C116.7 32.7 133.3 38.3 150 38.3C166.7 38.3 183.3 32.7 200 32.3C216.7 32 233.3 37 250 38.8C266.7 40.7 283.3 39.3 300 39.5C316.7 39.7 333.3 41.3 350 38.3C366.7 35.3 383.3 27.7 400 23.2C416.7 18.7 433.3 17.3 450 20.8C466.7 24.3 483.3 32.7 500 36.7C516.7 40.7 533.3 40.3 550 34.8C566.7 29.3 583.3 18.7 600 16.3C616.7 14 633.3 20 650 21.3C666.7 22.7 683.3 19.3 700 17.7C716.7 16 733.3 16 750 14.5C766.7 13 783.3 10 800 10.5C816.7 11 833.3 15 850 18C866.7 21 883.3 23 891.7 24L900 25L900 0L891.7 0C883.3 0 866.7 0 850 0C833.3 0 816.7 0 800 0C783.3 0 766.7 0 750 0C733.3 0 716.7 0 700 0C683.3 0 666.7 0 650 0C633.3 0 616.7 0 600 0C583.3 0 566.7 0 550 0C533.3 0 516.7 0 500 0C483.3 0 466.7 0 450 0C433.3 0 416.7 0 400 0C383.3 0 366.7 0 350 0C333.3 0 316.7 0 300 0C283.3 0 266.7 0 250 0C233.3 0 216.7 0 200 0C183.3 0 166.7 0 150 0C133.3 0 116.7 0 100 0C83.3 0 66.7 0 50 0C33.3 0 16.7 0 8.3 0L0 0Z" fill="#55088c"></path><path d="M0 24L8.3 23C16.7 22 33.3 20 50 20.2C66.7 20.3 83.3 22.7 100 22C116.7 21.3 133.3 17.7 150 14.2C166.7 10.7 183.3 7.3 200 9C216.7 10.7 233.3 17.3 250 21.7C266.7 26 283.3 28 300 27C316.7 26 333.3 22 350 19.2C366.7 16.3 383.3 14.7 400 15C416.7 15.3 433.3 17.7 450 19.5C466.7 21.3 483.3 22.7 500 23.5C516.7 24.3 533.3 24.7 550 21.2C566.7 17.7 583.3 10.3 600 8.3C616.7 6.3 633.3 9.7 650 12C666.7 14.3 683.3 15.7 700 16.3C716.7 17 733.3 17 750 17.2C766.7 17.3 783.3 17.7 800 18.5C816.7 19.3 833.3 20.7 850 19C866.7 17.3 883.3 12.7 891.7 10.3L900 8L900 0L891.7 0C883.3 0 866.7 0 850 0C833.3 0 816.7 0 800 0C783.3 0 766.7 0 750 0C733.3 0 716.7 0 700 0C683.3 0 666.7 0 650 0C633.3 0 616.7 0 600 0C583.3 0 566.7 0 550 0C533.3 0 516.7 0 500 0C483.3 0 466.7 0 450 0C433.3 0 416.7 0 400 0C383.3 0 366.7 0 350 0C333.3 0 316.7 0 300 0C283.3 0 266.7 0 250 0C233.3 0 216.7 0 200 0C183.3 0 166.7 0 150 0C133.3 0 116.7 0 100 0C83.3 0 66.7 0 50 0C33.3 0 16.7 0 8.3 0L0 0Z" fill="#3f0071"></path></svg>