<svg id="visual" viewBox="0 0 900 600" width="900" height="600" xmlns="http://www.w3.org/2000/svg" xmlns:xlink="http://www.w3.org/1999/xlink" version="1.1"><rect x="0" y="0" width="900" height="600" fill="#000"></rect><path d="M0 421L21.5 425.2C43 429.3 86 437.7 128.8 441.5C171.7 445.3 214.3 444.7 257.2 427.7C300 410.7 343 377.3 385.8 377.8C428.7 378.3 471.3 412.7 514.2 433.2C557 453.7 600 460.3 642.8 456C685.7 451.7 728.3 436.3 771.2 427C814 417.7 857 414.3 878.5 412.7L900 411L900 601L878.5 601C857 601 814 601 771.2 601C728.3 601 685.7 601 642.8 601C600 601 557 601 514.2 601C471.3 601 428.7 601 385.8 601C343 601 300 601 257.2 601C214.3 601 171.7 601 128.8 601C86 601 43 601 21.5 601L0 601Z" fill="#b931fc"></path><path d="M0 479L21.5 465.8C43 452.7 86 426.3 128.8 416.8C171.7 407.3 214.3 414.7 257.2 425.3C300 436 343 450 385.8 459.8C428.7 469.7 471.3 475.3 514.2 463.5C557 451.7 600 422.3 642.8 410C685.7 397.7 728.3 402.3 771.2 416.2C814 430 857 453 878.5 464.5L900 476L900 601L878.5 601C857 601 814 601 771.2 601C728.3 601 685.7 601 642.8 601C600 601 557 601 514.2 601C471.3 601 428.7 601 385.8 601C343 601 300 601 257.2 601C214.3 601 171.7 601 128.8 601C86 601 43 601 21.5 601L0 601Z" fill="#8d21cc"></path><path d="M0 470L21.5 469.7C43 469.3 86 468.7 128.8 479C171.7 489.3 214.3 510.7 257.2 508.7C300 506.7 343 481.3 385.8 467C428.7 452.7 471.3 449.3 514.2 458.2C557 467 600 488 642.8 496C685.7 504 728.3 499 771.2 488.8C814 478.7 857 463.3 878.5 455.7L900 448L900 601L878.5 601C857 601 814 601 771.2 601C728.3 601 685.7 601 642.8 601C600 601 557 601 514.2 601C471.3 601 428.7 601 385.8 601C343 601 300 601 257.2 601C214.3 601 171.7 601 128.8 601C86 601 43 601 21.5 601L0 601Z" fill="#640f9e"></path><path d="M0 536L21.5 541.3C43 546.7 86 557.3 128.8 555C171.7 552.7 214.3 537.3 257.2 529.8C300 522.3 343 522.7 385.8 525C428.7 527.3 471.3 531.7 514.2 538.7C557 545.7 600 555.3 642.8 553.8C685.7 552.3 728.3 539.7 771.2 540.3C814 541 857 555 878.5 562L900 569L900 601L878.5 601C857 601 814 601 771.2 601C728.3 601 685.7 601 642.8 601C600 601 557 601 514.2 601C471.3 601 428.7 601 385.8 601C343 601 300 601 257.2 601C214.3 601 171.7 601 128.8 601C86 601 43 601 21.5 601L0 601Z" fill="#3f0071"></path></svg>