<svg id="visual" viewBox="0 0 900 600" width="900" height="600" xmlns="http://www.w3.org/2000/svg" xmlns:xlink="http://www.w3.org/1999/xlink" version="1.1"><rect x="0" y="0" width="900" height="600" fill="#FFFFFF"></rect><path d="M0 320L16.7 320.5C33.3 321 66.7 322 100 329C133.3 336 166.7 349 200 348.8C233.3 348.7 266.7 335.3 300 345.2C333.3 355 366.7 388 400 389.2C433.3 390.3 466.7 359.7 500 341.3C533.3 323 566.7 317 600 325.5C633.3 334 666.7 357 700 373.5C733.3 390 766.7 400 800 390.7C833.3 381.3 866.7 352.7 883.3 338.3L900 324L900 601L883.3 601C866.7 601 833.3 601 800 601C766.7 601 733.3 601 700 601C666.7 601 633.3 601 600 601C566.7 601 533.3 601 500 601C466.7 601 433.3 601 400 601C366.7 601 333.3 601 300 601C266.7 601 233.3 601 200 601C166.7 601 133.3 601 100 601C66.7 601 33.3 601 16.7 601L0 601Z" fill="#b931fc"></path><path d="M0 471L16.7 455.3C33.3 439.7 66.7 408.3 100 405.3C133.3 402.3 166.7 427.7 200 436.7C233.3 445.7 266.7 438.3 300 427.3C333.3 416.3 366.7 401.7 400 398.3C433.3 395 466.7 403 500 408C533.3 413 566.7 415 600 420.2C633.3 425.3 666.7 433.7 700 439.3C733.3 445 766.7 448 800 441.8C833.3 435.7 866.7 420.3 883.3 412.7L900 405L900 601L883.3 601C866.7 601 833.3 601 800 601C766.7 601 733.3 601 700 601C666.7 601 633.3 601 600 601C566.7 601 533.3 601 500 601C466.7 601 433.3 601 400 601C366.7 601 333.3 601 300 601C266.7 601 233.3 601 200 601C166.7 601 133.3 601 100 601C66.7 601 33.3 601 16.7 601L0 601Z" fill="#8d22c5"></path><path d="M0 435L16.7 445.3C33.3 455.7 66.7 476.3 100 478.5C133.3 480.7 166.7 464.3 200 468.7C233.3 473 266.7 498 300 504.3C333.3 510.7 366.7 498.3 400 487.7C433.3 477 466.7 468 500 470C533.3 472 566.7 485 600 482.3C633.3 479.7 666.7 461.3 700 455.2C733.3 449 766.7 455 800 456.8C833.3 458.7 866.7 456.3 883.3 455.2L900 454L900 601L883.3 601C866.7 601 833.3 601 800 601C766.7 601 733.3 601 700 601C666.7 601 633.3 601 600 601C566.7 601 533.3 601 500 601C466.7 601 433.3 601 400 601C366.7 601 333.3 601 300 601C266.7 601 233.3 601 200 601C166.7 601 133.3 601 100 601C66.7 601 33.3 601 16.7 601L0 601Z" fill="#641490"></path><path d="M0 545L16.7 536.2C33.3 527.3 66.7 509.7 100 504.3C133.3 499 166.7 506 200 517.3C233.3 528.7 266.7 544.3 300 547.8C333.3 551.3 366.7 542.7 400 539.8C433.3 537 466.7 540 500 539.2C533.3 538.3 566.7 533.7 600 525.2C633.3 516.7 666.7 504.3 700 509.7C733.3 515 766.7 538 800 541.3C833.3 544.7 866.7 528.3 883.3 520.2L900 512L900 601L883.3 601C866.7 601 833.3 601 800 601C766.7 601 733.3 601 700 601C666.7 601 633.3 601 600 601C566.7 601 533.3 601 500 601C466.7 601 433.3 601 400 601C366.7 601 333.3 601 300 601C266.7 601 233.3 601 200 601C166.7 601 133.3 601 100 601C66.7 601 33.3 601 16.7 601L0 601Z" fill="#3e065f"></path></svg>