<svg id="visual" viewBox="0 0 900 600" width="900" height="600" xmlns="http://www.w3.org/2000/svg" xmlns:xlink="http://www.w3.org/1999/xlink" version="1.1"><rect x="0" y="0" width="900" height="600" fill="#ffffff"></rect><path d="M0 393L12.5 389.5C25 386 50 379 75 375.7C100 372.3 125 372.7 150 384.8C175 397 200 421 225 420.2C250 419.3 275 393.7 300 395.2C325 396.7 350 425.3 375 428.2C400 431 425 408 450 399.7C475 391.3 500 397.7 525 405.2C550 412.7 575 421.3 600 429.3C625 437.3 650 444.7 675 436.5C700 428.3 725 404.7 750 402.2C775 399.7 800 418.3 825 418C850 417.7 875 398.3 887.5 388.7L900 379L900 601L887.5 601C875 601 850 601 825 601C800 601 775 601 750 601C725 601 700 601 675 601C650 601 625 601 600 601C575 601 550 601 525 601C500 601 475 601 450 601C425 601 400 601 375 601C350 601 325 601 300 601C275 601 250 601 225 601C200 601 175 601 150 601C125 601 100 601 75 601C50 601 25 601 12.5 601L0 601Z" fill="#b931fc"></path><path d="M0 491L12.5 483.8C25 476.7 50 462.3 75 449.3C100 436.3 125 424.7 150 418C175 411.3 200 409.7 225 419.8C250 430 275 452 300 458C325 464 350 454 375 442.3C400 430.7 425 417.3 450 413C475 408.7 500 413.3 525 423.2C550 433 575 448 600 448.5C625 449 650 435 675 425.7C700 416.3 725 411.7 750 418.2C775 424.7 800 442.3 825 450.3C850 458.3 875 456.7 887.5 455.8L900 455L900 601L887.5 601C875 601 850 601 825 601C800 601 775 601 750 601C725 601 700 601 675 601C650 601 625 601 600 601C575 601 550 601 525 601C500 601 475 601 450 601C425 601 400 601 375 601C350 601 325 601 300 601C275 601 250 601 225 601C200 601 175 601 150 601C125 601 100 601 75 601C50 601 25 601 12.5 601L0 601Z" fill="#8d22c5"></path><path d="M0 501L12.5 498.3C25 495.7 50 490.3 75 490C100 489.7 125 494.3 150 494.5C175 494.7 200 490.3 225 483.8C250 477.3 275 468.7 300 467.8C325 467 350 474 375 477.2C400 480.3 425 479.7 450 480.5C475 481.3 500 483.7 525 489.8C550 496 575 506 600 507.3C625 508.7 650 501.3 675 500.8C700 500.3 725 506.7 750 512.7C775 518.7 800 524.3 825 521.2C850 518 875 506 887.5 500L900 494L900 601L887.5 601C875 601 850 601 825 601C800 601 775 601 750 601C725 601 700 601 675 601C650 601 625 601 600 601C575 601 550 601 525 601C500 601 475 601 450 601C425 601 400 601 375 601C350 601 325 601 300 601C275 601 250 601 225 601C200 601 175 601 150 601C125 601 100 601 75 601C50 601 25 601 12.5 601L0 601Z" fill="#641490"></path><path d="M0 554L12.5 548.7C25 543.3 50 532.7 75 529.7C100 526.7 125 531.3 150 537.7C175 544 200 552 225 555.7C250 559.3 275 558.7 300 557.2C325 555.7 350 553.3 375 546.8C400 540.3 425 529.7 450 532.2C475 534.7 500 550.3 525 557.3C550 564.3 575 562.7 600 561.7C625 560.7 650 560.3 675 552.3C700 544.3 725 528.7 750 523.8C775 519 800 525 825 532.3C850 539.7 875 548.3 887.5 552.7L900 557L900 601L887.5 601C875 601 850 601 825 601C800 601 775 601 750 601C725 601 700 601 675 601C650 601 625 601 600 601C575 601 550 601 525 601C500 601 475 601 450 601C425 601 400 601 375 601C350 601 325 601 300 601C275 601 250 601 225 601C200 601 175 601 150 601C125 601 100 601 75 601C50 601 25 601 12.5 601L0 601Z" fill="#3e065f"></path></svg>