<svg id="visual" viewBox="0 0 900 600" width="900" height="600" xmlns="http://www.w3.org/2000/svg" xmlns:xlink="http://www.w3.org/1999/xlink" version="1.1"><rect x="0" y="0" width="900" height="600" fill="#000"></rect><path d="M0 321L10.7 320.3C21.3 319.7 42.7 318.3 64.2 322C85.7 325.7 107.3 334.3 128.8 328.3C150.3 322.3 171.7 301.7 193 295C214.3 288.3 235.7 295.7 257 308.2C278.3 320.7 299.7 338.3 321.2 345.8C342.7 353.3 364.3 350.7 385.8 339.7C407.3 328.7 428.7 309.3 450 307.2C471.3 305 492.7 320 514.2 324.7C535.7 329.3 557.3 323.7 578.8 327.7C600.3 331.7 621.7 345.3 643 345.5C664.3 345.7 685.7 332.3 707 323.5C728.3 314.7 749.7 310.3 771.2 317.3C792.7 324.3 814.3 342.7 835.8 351.8C857.3 361 878.7 361 889.3 361L900 361L900 601L889.3 601C878.7 601 857.3 601 835.8 601C814.3 601 792.7 601 771.2 601C749.7 601 728.3 601 707 601C685.7 601 664.3 601 643 601C621.7 601 600.3 601 578.8 601C557.3 601 535.7 601 514.2 601C492.7 601 471.3 601 450 601C428.7 601 407.3 601 385.8 601C364.3 601 342.7 601 321.2 601C299.7 601 278.3 601 257 601C235.7 601 214.3 601 193 601C171.7 601 150.3 601 128.8 601C107.3 601 85.7 601 64.2 601C42.7 601 21.3 601 10.7 601L0 601Z" fill="#b931fc"></path><path d="M0 389L10.7 384.5C21.3 380 42.7 371 64.2 359.2C85.7 347.3 107.3 332.7 128.8 328.7C150.3 324.7 171.7 331.3 193 339.8C214.3 348.3 235.7 358.7 257 362C278.3 365.3 299.7 361.7 321.2 356.5C342.7 351.3 364.3 344.7 385.8 341.3C407.3 338 428.7 338 450 346.8C471.3 355.7 492.7 373.3 514.2 374.2C535.7 375 557.3 359 578.8 350.2C600.3 341.3 621.7 339.7 643 347.3C664.3 355 685.7 372 707 379.2C728.3 386.3 749.7 383.7 771.2 378.8C792.7 374 814.3 367 835.8 364.8C857.3 362.7 878.7 365.3 889.3 366.7L900 368L900 601L889.3 601C878.7 601 857.3 601 835.8 601C814.3 601 792.7 601 771.2 601C749.7 601 728.3 601 707 601C685.7 601 664.3 601 643 601C621.7 601 600.3 601 578.8 601C557.3 601 535.7 601 514.2 601C492.7 601 471.3 601 450 601C428.7 601 407.3 601 385.8 601C364.3 601 342.7 601 321.2 601C299.7 601 278.3 601 257 601C235.7 601 214.3 601 193 601C171.7 601 150.3 601 128.8 601C107.3 601 85.7 601 64.2 601C42.7 601 21.3 601 10.7 601L0 601Z" fill="#a62ae7"></path><path d="M0 383L10.7 386C21.3 389 42.7 395 64.2 398.2C85.7 401.3 107.3 401.7 128.8 398.5C150.3 395.3 171.7 388.7 193 382.2C214.3 375.7 235.7 369.3 257 366.3C278.3 363.3 299.7 363.7 321.2 373.8C342.7 384 364.3 404 385.8 410.8C407.3 417.7 428.7 411.3 450 402.2C471.3 393 492.7 381 514.2 375.5C535.7 370 557.3 371 578.8 371.5C600.3 372 621.7 372 643 372.2C664.3 372.3 685.7 372.7 707 377.3C728.3 382 749.7 391 771.2 398.7C792.7 406.3 814.3 412.7 835.8 407.2C857.3 401.7 878.7 384.3 889.3 375.7L900 367L900 601L889.3 601C878.7 601 857.3 601 835.8 601C814.3 601 792.7 601 771.2 601C749.7 601 728.3 601 707 601C685.7 601 664.3 601 643 601C621.7 601 600.3 601 578.8 601C557.3 601 535.7 601 514.2 601C492.7 601 471.3 601 450 601C428.7 601 407.3 601 385.8 601C364.3 601 342.7 601 321.2 601C299.7 601 278.3 601 257 601C235.7 601 214.3 601 193 601C171.7 601 150.3 601 128.8 601C107.3 601 85.7 601 64.2 601C42.7 601 21.3 601 10.7 601L0 601Z" fill="#9323d3"></path><path d="M0 399L10.7 407C21.3 415 42.7 431 64.2 435.7C85.7 440.3 107.3 433.7 128.8 424.7C150.3 415.7 171.7 404.3 193 401.7C214.3 399 235.7 405 257 415C278.3 425 299.7 439 321.2 441.2C342.7 443.3 364.3 433.7 385.8 426.2C407.3 418.7 428.7 413.3 450 410.3C471.3 407.3 492.7 406.7 514.2 409.7C535.7 412.7 557.3 419.3 578.8 418.2C600.3 417 621.7 408 643 408.8C664.3 409.7 685.7 420.3 707 425.3C728.3 430.3 749.7 429.7 771.2 428.7C792.7 427.7 814.3 426.3 835.8 424.8C857.3 423.3 878.7 421.7 889.3 420.8L900 420L900 601L889.3 601C878.7 601 857.3 601 835.8 601C814.3 601 792.7 601 771.2 601C749.7 601 728.3 601 707 601C685.7 601 664.3 601 643 601C621.7 601 600.3 601 578.8 601C557.3 601 535.7 601 514.2 601C492.7 601 471.3 601 450 601C428.7 601 407.3 601 385.8 601C364.3 601 342.7 601 321.2 601C299.7 601 278.3 601 257 601C235.7 601 214.3 601 193 601C171.7 601 150.3 601 128.8 601C107.3 601 85.7 601 64.2 601C42.7 601 21.3 601 10.7 601L0 601Z" fill="#811cbf"></path><path d="M0 463L10.7 463.7C21.3 464.3 42.7 465.7 64.2 469.5C85.7 473.3 107.3 479.7 128.8 474.2C150.3 468.7 171.7 451.3 193 443.7C214.3 436 235.7 438 257 444.8C278.3 451.7 299.7 463.3 321.2 469.3C342.7 475.3 364.3 475.7 385.8 474.7C407.3 473.7 428.7 471.3 450 470.7C471.3 470 492.7 471 514.2 468.8C535.7 466.7 557.3 461.3 578.8 457.3C600.3 453.3 621.7 450.7 643 454.5C664.3 458.3 685.7 468.7 707 466.3C728.3 464 749.7 449 771.2 449C792.7 449 814.3 464 835.8 465.5C857.3 467 878.7 455 889.3 449L900 443L900 601L889.3 601C878.7 601 857.3 601 835.8 601C814.3 601 792.7 601 771.2 601C749.7 601 728.3 601 707 601C685.7 601 664.3 601 643 601C621.7 601 600.3 601 578.8 601C557.3 601 535.7 601 514.2 601C492.7 601 471.3 601 450 601C428.7 601 407.3 601 385.8 601C364.3 601 342.7 601 321.2 601C299.7 601 278.3 601 257 601C235.7 601 214.3 601 193 601C171.7 601 150.3 601 128.8 601C107.3 601 85.7 601 64.2 601C42.7 601 21.3 601 10.7 601L0 601Z" fill="#6f14ab"></path><path d="M0 513L10.7 506.3C21.3 499.7 42.7 486.3 64.2 485C85.7 483.7 107.3 494.3 128.8 495.5C150.3 496.7 171.7 488.3 193 484.2C214.3 480 235.7 480 257 484.7C278.3 489.3 299.7 498.7 321.2 499.5C342.7 500.3 364.3 492.7 385.8 488.3C407.3 484 428.7 483 450 483C471.3 483 492.7 484 514.2 481.7C535.7 479.3 557.3 473.7 578.8 471C600.3 468.3 621.7 468.7 643 474C664.3 479.3 685.7 489.7 707 495.5C728.3 501.3 749.7 502.7 771.2 502.8C792.7 503 814.3 502 835.8 501.7C857.3 501.3 878.7 501.7 889.3 501.8L900 502L900 601L889.3 601C878.7 601 857.3 601 835.8 601C814.3 601 792.7 601 771.2 601C749.7 601 728.3 601 707 601C685.7 601 664.3 601 643 601C621.7 601 600.3 601 578.8 601C557.3 601 535.7 601 514.2 601C492.7 601 471.3 601 450 601C428.7 601 407.3 601 385.8 601C364.3 601 342.7 601 321.2 601C299.7 601 278.3 601 257 601C235.7 601 214.3 601 193 601C171.7 601 150.3 601 128.8 601C107.3 601 85.7 601 64.2 601C42.7 601 21.3 601 10.7 601L0 601Z" fill="#5f0d97"></path><path d="M0 509L10.7 508.8C21.3 508.7 42.7 508.3 64.2 513.7C85.7 519 107.3 530 128.8 532C150.3 534 171.7 527 193 525.8C214.3 524.7 235.7 529.3 257 529.5C278.3 529.7 299.7 525.3 321.2 521.8C342.7 518.3 364.3 515.7 385.8 519C407.3 522.3 428.7 531.7 450 536.8C471.3 542 492.7 543 514.2 543.2C535.7 543.3 557.3 542.7 578.8 540.8C600.3 539 621.7 536 643 532.5C664.3 529 685.7 525 707 525.2C728.3 525.3 749.7 529.7 771.2 533.3C792.7 537 814.3 540 835.8 541.3C857.3 542.7 878.7 542.3 889.3 542.2L900 542L900 601L889.3 601C878.7 601 857.3 601 835.8 601C814.3 601 792.7 601 771.2 601C749.7 601 728.3 601 707 601C685.7 601 664.3 601 643 601C621.7 601 600.3 601 578.8 601C557.3 601 535.7 601 514.2 601C492.7 601 471.3 601 450 601C428.7 601 407.3 601 385.8 601C364.3 601 342.7 601 321.2 601C299.7 601 278.3 601 257 601C235.7 601 214.3 601 193 601C171.7 601 150.3 601 128.8 601C107.3 601 85.7 601 64.2 601C42.7 601 21.3 601 10.7 601L0 601Z" fill="#4f0584"></path><path d="M0 562L10.7 560.3C21.3 558.7 42.7 555.3 64.2 555.8C85.7 556.3 107.3 560.7 128.8 560.7C150.3 560.7 171.7 556.3 193 556.8C214.3 557.3 235.7 562.7 257 562.2C278.3 561.7 299.7 555.3 321.2 554.5C342.7 553.7 364.3 558.3 385.8 560.7C407.3 563 428.7 563 450 559.3C471.3 555.7 492.7 548.3 514.2 548C535.7 547.7 557.3 554.3 578.8 559.8C600.3 565.3 621.7 569.7 643 569.5C664.3 569.3 685.7 564.7 707 564.2C728.3 563.7 749.7 567.3 771.2 567.8C792.7 568.3 814.3 565.7 835.8 565.5C857.3 565.3 878.7 567.7 889.3 568.8L900 570L900 601L889.3 601C878.7 601 857.3 601 835.8 601C814.3 601 792.7 601 771.2 601C749.7 601 728.3 601 707 601C685.7 601 664.3 601 643 601C621.7 601 600.3 601 578.8 601C557.3 601 535.7 601 514.2 601C492.7 601 471.3 601 450 601C428.7 601 407.3 601 385.8 601C364.3 601 342.7 601 321.2 601C299.7 601 278.3 601 257 601C235.7 601 214.3 601 193 601C171.7 601 150.3 601 128.8 601C107.3 601 85.7 601 64.2 601C42.7 601 21.3 601 10.7 601L0 601Z" fill="#3f0071"></path></svg>