<svg id="visual" viewBox="0 0 900 600" width="900" height="600" xmlns="http://www.w3.org/2000/svg" xmlns:xlink="http://www.w3.org/1999/xlink" version="1.1"><rect x="0" y="0" width="900" height="600" fill="#000"></rect><path d="M0 370L21.5 378.3C43 386.7 86 403.3 128.8 403.8C171.7 404.3 214.3 388.7 257.2 389.3C300 390 343 407 385.8 408.7C428.7 410.3 471.3 396.7 514.2 395.2C557 393.7 600 404.3 642.8 414C685.7 423.7 728.3 432.3 771.2 434.2C814 436 857 431 878.5 428.5L900 426L900 601L878.5 601C857 601 814 601 771.2 601C728.3 601 685.7 601 642.8 601C600 601 557 601 514.2 601C471.3 601 428.7 601 385.8 601C343 601 300 601 257.2 601C214.3 601 171.7 601 128.8 601C86 601 43 601 21.5 601L0 601Z" fill="#b931fc"></path><path d="M0 469L21.5 461.7C43 454.3 86 439.7 128.8 432.5C171.7 425.3 214.3 425.7 257.2 434.5C300 443.3 343 460.7 385.8 460.3C428.7 460 471.3 442 514.2 437.5C557 433 600 442 642.8 450.8C685.7 459.7 728.3 468.3 771.2 468.7C814 469 857 461 878.5 457L900 453L900 601L878.5 601C857 601 814 601 771.2 601C728.3 601 685.7 601 642.8 601C600 601 557 601 514.2 601C471.3 601 428.7 601 385.8 601C343 601 300 601 257.2 601C214.3 601 171.7 601 128.8 601C86 601 43 601 21.5 601L0 601Z" fill="#9825d8"></path><path d="M0 470L21.5 472.5C43 475 86 480 128.8 475C171.7 470 214.3 455 257.2 448.8C300 442.7 343 445.3 385.8 446.2C428.7 447 471.3 446 514.2 456C557 466 600 487 642.8 489.8C685.7 492.7 728.3 477.3 771.2 469.2C814 461 857 460 878.5 459.5L900 459L900 601L878.5 601C857 601 814 601 771.2 601C728.3 601 685.7 601 642.8 601C600 601 557 601 514.2 601C471.3 601 428.7 601 385.8 601C343 601 300 601 257.2 601C214.3 601 171.7 601 128.8 601C86 601 43 601 21.5 601L0 601Z" fill="#7818b5"></path><path d="M0 495L21.5 501C43 507 86 519 128.8 518C171.7 517 214.3 503 257.2 504.3C300 505.7 343 522.3 385.8 521.3C428.7 520.3 471.3 501.7 514.2 495C557 488.3 600 493.7 642.8 493.2C685.7 492.7 728.3 486.3 771.2 490.7C814 495 857 510 878.5 517.5L900 525L900 601L878.5 601C857 601 814 601 771.2 601C728.3 601 685.7 601 642.8 601C600 601 557 601 514.2 601C471.3 601 428.7 601 385.8 601C343 601 300 601 257.2 601C214.3 601 171.7 601 128.8 601C86 601 43 601 21.5 601L0 601Z" fill="#5b0b92"></path><path d="M0 528L21.5 534C43 540 86 552 128.8 555.3C171.7 558.7 214.3 553.3 257.2 551.8C300 550.3 343 552.7 385.8 553.3C428.7 554 471.3 553 514.2 553C557 553 600 554 642.8 550.5C685.7 547 728.3 539 771.2 535.2C814 531.3 857 531.7 878.5 531.8L900 532L900 601L878.5 601C857 601 814 601 771.2 601C728.3 601 685.7 601 642.8 601C600 601 557 601 514.2 601C471.3 601 428.7 601 385.8 601C343 601 300 601 257.2 601C214.3 601 171.7 601 128.8 601C86 601 43 601 21.5 601L0 601Z" fill="#3f0071"></path></svg>