<svg id="visual" viewBox="0 0 900 600" width="900" height="600" xmlns="http://www.w3.org/2000/svg" xmlns:xlink="http://www.w3.org/1999/xlink" version="1.1"><rect x="0" y="0" width="900" height="600" fill="#000"></rect><path d="M0 430L8.8 429.8C17.7 429.7 35.3 429.3 53 429.8C70.7 430.3 88.3 431.7 106 432.5C123.7 433.3 141.3 433.7 159 431.3C176.7 429 194.3 424 212 423C229.7 422 247.3 425 265 426.3C282.7 427.7 300.3 427.3 318 426.8C335.7 426.3 353.3 425.7 371 429.2C388.7 432.7 406.3 440.3 423.8 442.5C441.3 444.7 458.7 441.3 476.2 436.2C493.7 431 511.3 424 529 423.7C546.7 423.3 564.3 429.7 582 431.2C599.7 432.7 617.3 429.3 635 431.7C652.7 434 670.3 442 688 440.3C705.7 438.7 723.3 427.3 741 425.7C758.7 424 776.3 432 794 436.5C811.7 441 829.3 442 847 442.8C864.7 443.7 882.3 444.3 891.2 444.7L900 445L900 601L891.2 601C882.3 601 864.7 601 847 601C829.3 601 811.7 601 794 601C776.3 601 758.7 601 741 601C723.3 601 705.7 601 688 601C670.3 601 652.7 601 635 601C617.3 601 599.7 601 582 601C564.3 601 546.7 601 529 601C511.3 601 493.7 601 476.2 601C458.7 601 441.3 601 423.8 601C406.3 601 388.7 601 371 601C353.3 601 335.7 601 318 601C300.3 601 282.7 601 265 601C247.3 601 229.7 601 212 601C194.3 601 176.7 601 159 601C141.3 601 123.7 601 106 601C88.3 601 70.7 601 53 601C35.3 601 17.7 601 8.8 601L0 601Z" fill="#b931fc"></path><path d="M0 478L8.8 475.3C17.7 472.7 35.3 467.3 53 463.3C70.7 459.3 88.3 456.7 106 459.3C123.7 462 141.3 470 159 474.3C176.7 478.7 194.3 479.3 212 478C229.7 476.7 247.3 473.3 265 469.7C282.7 466 300.3 462 318 459.2C335.7 456.3 353.3 454.7 371 452.8C388.7 451 406.3 449 423.8 450.2C441.3 451.3 458.7 455.7 476.2 460.2C493.7 464.7 511.3 469.3 529 467C546.7 464.7 564.3 455.3 582 453.5C599.7 451.7 617.3 457.3 635 460C652.7 462.7 670.3 462.3 688 460C705.7 457.7 723.3 453.3 741 451.5C758.7 449.7 776.3 450.3 794 454.7C811.7 459 829.3 467 847 471.8C864.7 476.7 882.3 478.3 891.2 479.2L900 480L900 601L891.2 601C882.3 601 864.7 601 847 601C829.3 601 811.7 601 794 601C776.3 601 758.7 601 741 601C723.3 601 705.7 601 688 601C670.3 601 652.7 601 635 601C617.3 601 599.7 601 582 601C564.3 601 546.7 601 529 601C511.3 601 493.7 601 476.2 601C458.7 601 441.3 601 423.8 601C406.3 601 388.7 601 371 601C353.3 601 335.7 601 318 601C300.3 601 282.7 601 265 601C247.3 601 229.7 601 212 601C194.3 601 176.7 601 159 601C141.3 601 123.7 601 106 601C88.3 601 70.7 601 53 601C35.3 601 17.7 601 8.8 601L0 601Z" fill="#9825d8"></path><path d="M0 498L8.8 500.2C17.7 502.3 35.3 506.7 53 503.5C70.7 500.3 88.3 489.7 106 488.7C123.7 487.7 141.3 496.3 159 496.5C176.7 496.7 194.3 488.3 212 485C229.7 481.7 247.3 483.3 265 483.3C282.7 483.3 300.3 481.7 318 485.2C335.7 488.7 353.3 497.3 371 499.5C388.7 501.7 406.3 497.3 423.8 495.7C441.3 494 458.7 495 476.2 497.3C493.7 499.7 511.3 503.3 529 504.8C546.7 506.3 564.3 505.7 582 501.5C599.7 497.3 617.3 489.7 635 489.5C652.7 489.3 670.3 496.7 688 498.2C705.7 499.7 723.3 495.3 741 492.7C758.7 490 776.3 489 794 487.5C811.7 486 829.3 484 847 484C864.7 484 882.3 486 891.2 487L900 488L900 601L891.2 601C882.3 601 864.7 601 847 601C829.3 601 811.7 601 794 601C776.3 601 758.7 601 741 601C723.3 601 705.7 601 688 601C670.3 601 652.7 601 635 601C617.3 601 599.7 601 582 601C564.3 601 546.7 601 529 601C511.3 601 493.7 601 476.2 601C458.7 601 441.3 601 423.8 601C406.3 601 388.7 601 371 601C353.3 601 335.7 601 318 601C300.3 601 282.7 601 265 601C247.3 601 229.7 601 212 601C194.3 601 176.7 601 159 601C141.3 601 123.7 601 106 601C88.3 601 70.7 601 53 601C35.3 601 17.7 601 8.8 601L0 601Z" fill="#7818b5"></path><path d="M0 515L8.8 516.8C17.7 518.7 35.3 522.3 53 526.5C70.7 530.7 88.3 535.3 106 537C123.7 538.7 141.3 537.3 159 536.8C176.7 536.3 194.3 536.7 212 535.7C229.7 534.7 247.3 532.3 265 528.7C282.7 525 300.3 520 318 521.2C335.7 522.3 353.3 529.7 371 531.7C388.7 533.7 406.3 530.3 423.8 526.8C441.3 523.3 458.7 519.7 476.2 517.8C493.7 516 511.3 516 529 516.7C546.7 517.3 564.3 518.7 582 522.8C599.7 527 617.3 534 635 534.7C652.7 535.3 670.3 529.7 688 526.8C705.7 524 723.3 524 741 524.5C758.7 525 776.3 526 794 525.2C811.7 524.3 829.3 521.7 847 520.7C864.7 519.7 882.3 520.3 891.2 520.7L900 521L900 601L891.2 601C882.3 601 864.7 601 847 601C829.3 601 811.7 601 794 601C776.3 601 758.7 601 741 601C723.3 601 705.7 601 688 601C670.3 601 652.7 601 635 601C617.3 601 599.7 601 582 601C564.3 601 546.7 601 529 601C511.3 601 493.7 601 476.2 601C458.7 601 441.3 601 423.8 601C406.3 601 388.7 601 371 601C353.3 601 335.7 601 318 601C300.3 601 282.7 601 265 601C247.3 601 229.7 601 212 601C194.3 601 176.7 601 159 601C141.3 601 123.7 601 106 601C88.3 601 70.7 601 53 601C35.3 601 17.7 601 8.8 601L0 601Z" fill="#5b0b92"></path><path d="M0 560L8.8 560.2C17.7 560.3 35.3 560.7 53 561.8C70.7 563 88.3 565 106 566.3C123.7 567.7 141.3 568.3 159 566.7C176.7 565 194.3 561 212 560.2C229.7 559.3 247.3 561.7 265 561.2C282.7 560.7 300.3 557.3 318 554.7C335.7 552 353.3 550 371 552.7C388.7 555.3 406.3 562.7 423.8 563.5C441.3 564.3 458.7 558.7 476.2 557C493.7 555.3 511.3 557.7 529 560.2C546.7 562.7 564.3 565.3 582 564C599.7 562.7 617.3 557.3 635 555C652.7 552.7 670.3 553.3 688 553.8C705.7 554.3 723.3 554.7 741 555.7C758.7 556.7 776.3 558.3 794 559.3C811.7 560.3 829.3 560.7 847 558.5C864.7 556.3 882.3 551.7 891.2 549.3L900 547L900 601L891.2 601C882.3 601 864.7 601 847 601C829.3 601 811.7 601 794 601C776.3 601 758.7 601 741 601C723.3 601 705.7 601 688 601C670.3 601 652.7 601 635 601C617.3 601 599.7 601 582 601C564.3 601 546.7 601 529 601C511.3 601 493.7 601 476.2 601C458.7 601 441.3 601 423.8 601C406.3 601 388.7 601 371 601C353.3 601 335.7 601 318 601C300.3 601 282.7 601 265 601C247.3 601 229.7 601 212 601C194.3 601 176.7 601 159 601C141.3 601 123.7 601 106 601C88.3 601 70.7 601 53 601C35.3 601 17.7 601 8.8 601L0 601Z" fill="#3f0071"></path></svg>