<svg id="visual" viewBox="0 0 900 600" width="900" height="600" xmlns="http://www.w3.org/2000/svg" xmlns:xlink="http://www.w3.org/1999/xlink" version="1.1"><rect x="0" y="0" width="900" height="600" fill="#ffffff"></rect><path d="M0 389L18.8 385.2C37.7 381.3 75.3 373.7 112.8 374.8C150.3 376 187.7 386 225.2 392.5C262.7 399 300.3 402 337.8 405.5C375.3 409 412.7 413 450.2 420.5C487.7 428 525.3 439 562.8 430.2C600.3 421.3 637.7 392.7 675.2 384.5C712.7 376.3 750.3 388.7 787.8 395.7C825.3 402.7 862.7 404.3 881.3 405.2L900 406L900 601L881.3 601C862.7 601 825.3 601 787.8 601C750.3 601 712.7 601 675.2 601C637.7 601 600.3 601 562.8 601C525.3 601 487.7 601 450.2 601C412.7 601 375.3 601 337.8 601C300.3 601 262.7 601 225.2 601C187.7 601 150.3 601 112.8 601C75.3 601 37.7 601 18.8 601L0 601Z" fill="#b931fc"></path><path d="M0 463L18.8 466.2C37.7 469.3 75.3 475.7 112.8 470.7C150.3 465.7 187.7 449.3 225.2 451.2C262.7 453 300.3 473 337.8 470.5C375.3 468 412.7 443 450.2 430.3C487.7 417.7 525.3 417.3 562.8 426.7C600.3 436 637.7 455 675.2 453.2C712.7 451.3 750.3 428.7 787.8 424.5C825.3 420.3 862.7 434.7 881.3 441.8L900 449L900 601L881.3 601C862.7 601 825.3 601 787.8 601C750.3 601 712.7 601 675.2 601C637.7 601 600.3 601 562.8 601C525.3 601 487.7 601 450.2 601C412.7 601 375.3 601 337.8 601C300.3 601 262.7 601 225.2 601C187.7 601 150.3 601 112.8 601C75.3 601 37.7 601 18.8 601L0 601Z" fill="#8d22c5"></path><path d="M0 521L18.8 513.3C37.7 505.7 75.3 490.3 112.8 490.5C150.3 490.7 187.7 506.3 225.2 504C262.7 501.7 300.3 481.3 337.8 474.3C375.3 467.3 412.7 473.7 450.2 473.3C487.7 473 525.3 466 562.8 462.5C600.3 459 637.7 459 675.2 468.2C712.7 477.3 750.3 495.7 787.8 501.3C825.3 507 862.7 500 881.3 496.5L900 493L900 601L881.3 601C862.7 601 825.3 601 787.8 601C750.3 601 712.7 601 675.2 601C637.7 601 600.3 601 562.8 601C525.3 601 487.7 601 450.2 601C412.7 601 375.3 601 337.8 601C300.3 601 262.7 601 225.2 601C187.7 601 150.3 601 112.8 601C75.3 601 37.7 601 18.8 601L0 601Z" fill="#641490"></path><path d="M0 569L18.8 566.7C37.7 564.3 75.3 559.7 112.8 552.5C150.3 545.3 187.7 535.7 225.2 530.8C262.7 526 300.3 526 337.8 531C375.3 536 412.7 546 450.2 546.8C487.7 547.7 525.3 539.3 562.8 538.3C600.3 537.3 637.7 543.7 675.2 548.2C712.7 552.7 750.3 555.3 787.8 556C825.3 556.7 862.7 555.3 881.3 554.7L900 554L900 601L881.3 601C862.7 601 825.3 601 787.8 601C750.3 601 712.7 601 675.2 601C637.7 601 600.3 601 562.8 601C525.3 601 487.7 601 450.2 601C412.7 601 375.3 601 337.8 601C300.3 601 262.7 601 225.2 601C187.7 601 150.3 601 112.8 601C75.3 601 37.7 601 18.8 601L0 601Z" fill="#3e065f"></path></svg>