<svg id="visual" viewBox="0 0 900 600" width="900" height="600" xmlns="http://www.w3.org/2000/svg" xmlns:xlink="http://www.w3.org/1999/xlink" version="1.1"><rect x="0" y="0" width="900" height="600" fill="#000"></rect><path d="M0 72L12.5 76.2C25 80.3 50 88.7 75 80.8C100 73 125 49 150 50.5C175 52 200 79 225 88.7C250 98.3 275 90.7 300 80.8C325 71 350 59 375 51.3C400 43.7 425 40.3 450 54.2C475 68 500 99 525 98.2C550 97.3 575 64.7 600 46.8C625 29 650 26 675 32.5C700 39 725 55 750 56.7C775 58.3 800 45.7 825 42.2C850 38.7 875 44.3 887.5 47.2L900 50L900 601L887.5 601C875 601 850 601 825 601C800 601 775 601 750 601C725 601 700 601 675 601C650 601 625 601 600 601C575 601 550 601 525 601C500 601 475 601 450 601C425 601 400 601 375 601C350 601 325 601 300 601C275 601 250 601 225 601C200 601 175 601 150 601C125 601 100 601 75 601C50 601 25 601 12.5 601L0 601Z" fill="#b931fc"></path><path d="M0 151L12.5 152.5C25 154 50 157 75 153.2C100 149.3 125 138.7 150 136.3C175 134 200 140 225 145C250 150 275 154 300 142.5C325 131 350 104 375 98.5C400 93 425 109 450 117.3C475 125.7 500 126.3 525 135.2C550 144 575 161 600 156.5C625 152 650 126 675 113.7C700 101.3 725 102.7 750 97.8C775 93 800 82 825 86.2C850 90.3 875 109.7 887.5 119.3L900 129L900 601L887.5 601C875 601 850 601 825 601C800 601 775 601 750 601C725 601 700 601 675 601C650 601 625 601 600 601C575 601 550 601 525 601C500 601 475 601 450 601C425 601 400 601 375 601C350 601 325 601 300 601C275 601 250 601 225 601C200 601 175 601 150 601C125 601 100 601 75 601C50 601 25 601 12.5 601L0 601Z" fill="#ab2cee"></path><path d="M0 133L12.5 148C25 163 50 193 75 199.5C100 206 125 189 150 184.7C175 180.3 200 188.7 225 192.5C250 196.3 275 195.7 300 194.7C325 193.7 350 192.3 375 182C400 171.7 425 152.3 450 150.7C475 149 500 165 525 170.7C550 176.3 575 171.7 600 175.2C625 178.7 650 190.3 675 195.3C700 200.3 725 198.7 750 193.8C775 189 800 181 825 180.2C850 179.3 875 185.7 887.5 188.8L900 192L900 601L887.5 601C875 601 850 601 825 601C800 601 775 601 750 601C725 601 700 601 675 601C650 601 625 601 600 601C575 601 550 601 525 601C500 601 475 601 450 601C425 601 400 601 375 601C350 601 325 601 300 601C275 601 250 601 225 601C200 601 175 601 150 601C125 601 100 601 75 601C50 601 25 601 12.5 601L0 601Z" fill="#9e27df"></path><path d="M0 215L12.5 213.2C25 211.3 50 207.7 75 215C100 222.3 125 240.7 150 244C175 247.3 200 235.7 225 223.3C250 211 275 198 300 202C325 206 350 227 375 240.8C400 254.7 425 261.3 450 264.5C475 267.7 500 267.3 525 266C550 264.7 575 262.3 600 248.7C625 235 650 210 675 199C700 188 725 191 750 189.5C775 188 800 182 825 179.5C850 177 875 178 887.5 178.5L900 179L900 601L887.5 601C875 601 850 601 825 601C800 601 775 601 750 601C725 601 700 601 675 601C650 601 625 601 600 601C575 601 550 601 525 601C500 601 475 601 450 601C425 601 400 601 375 601C350 601 325 601 300 601C275 601 250 601 225 601C200 601 175 601 150 601C125 601 100 601 75 601C50 601 25 601 12.5 601L0 601Z" fill="#9122d1"></path><path d="M0 235L12.5 248.3C25 261.7 50 288.3 75 298.3C100 308.3 125 301.7 150 298C175 294.3 200 293.7 225 291.5C250 289.3 275 285.7 300 287.7C325 289.7 350 297.3 375 293.2C400 289 425 273 450 264.8C475 256.7 500 256.3 525 264.3C550 272.3 575 288.7 600 287C625 285.3 650 265.7 675 264C700 262.3 725 278.7 750 274.2C775 269.7 800 244.3 825 241.7C850 239 875 259 887.5 269L900 279L900 601L887.5 601C875 601 850 601 825 601C800 601 775 601 750 601C725 601 700 601 675 601C650 601 625 601 600 601C575 601 550 601 525 601C500 601 475 601 450 601C425 601 400 601 375 601C350 601 325 601 300 601C275 601 250 601 225 601C200 601 175 601 150 601C125 601 100 601 75 601C50 601 25 601 12.5 601L0 601Z" fill="#841dc3"></path><path d="M0 307L12.5 305.8C25 304.7 50 302.3 75 299.5C100 296.7 125 293.3 150 295.5C175 297.7 200 305.3 225 316.3C250 327.3 275 341.7 300 338.5C325 335.3 350 314.7 375 310.7C400 306.7 425 319.3 450 326.7C475 334 500 336 525 336C550 336 575 334 600 332C625 330 650 328 675 331.8C700 335.7 725 345.3 750 346C775 346.7 800 338.3 825 329.3C850 320.3 875 310.7 887.5 305.8L900 301L900 601L887.5 601C875 601 850 601 825 601C800 601 775 601 750 601C725 601 700 601 675 601C650 601 625 601 600 601C575 601 550 601 525 601C500 601 475 601 450 601C425 601 400 601 375 601C350 601 325 601 300 601C275 601 250 601 225 601C200 601 175 601 150 601C125 601 100 601 75 601C50 601 25 601 12.5 601L0 601Z" fill="#7818b5"></path><path d="M0 356L12.5 362.5C25 369 50 382 75 382.7C100 383.3 125 371.7 150 368.8C175 366 200 372 225 371.3C250 370.7 275 363.3 300 365.3C325 367.3 350 378.7 375 372.2C400 365.7 425 341.3 450 342.3C475 343.3 500 369.7 525 377.7C550 385.7 575 375.3 600 376.2C625 377 650 389 675 386.8C700 384.7 725 368.3 750 367.7C775 367 800 382 825 378.2C850 374.3 875 351.7 887.5 340.3L900 329L900 601L887.5 601C875 601 850 601 825 601C800 601 775 601 750 601C725 601 700 601 675 601C650 601 625 601 600 601C575 601 550 601 525 601C500 601 475 601 450 601C425 601 400 601 375 601C350 601 325 601 300 601C275 601 250 601 225 601C200 601 175 601 150 601C125 601 100 601 75 601C50 601 25 601 12.5 601L0 601Z" fill="#6c13a7"></path><path d="M0 422L12.5 418.5C25 415 50 408 75 399.8C100 391.7 125 382.3 150 378C175 373.7 200 374.3 225 381.8C250 389.3 275 403.7 300 405.7C325 407.7 350 397.3 375 398C400 398.7 425 410.3 450 415.2C475 420 500 418 525 422.3C550 426.7 575 437.3 600 443C625 448.7 650 449.3 675 435.3C700 421.3 725 392.7 750 382.5C775 372.3 800 380.7 825 391.7C850 402.7 875 416.3 887.5 423.2L900 430L900 601L887.5 601C875 601 850 601 825 601C800 601 775 601 750 601C725 601 700 601 675 601C650 601 625 601 600 601C575 601 550 601 525 601C500 601 475 601 450 601C425 601 400 601 375 601C350 601 325 601 300 601C275 601 250 601 225 601C200 601 175 601 150 601C125 601 100 601 75 601C50 601 25 601 12.5 601L0 601Z" fill="#600e99"></path><path d="M0 464L12.5 464.7C25 465.3 50 466.7 75 468.8C100 471 125 474 150 467.2C175 460.3 200 443.7 225 441.2C250 438.7 275 450.3 300 461C325 471.7 350 481.3 375 477.8C400 474.3 425 457.7 450 444.5C475 431.3 500 421.7 525 425.2C550 428.7 575 445.3 600 458C625 470.7 650 479.3 675 483.2C700 487 725 486 750 476.5C775 467 800 449 825 439.3C850 429.7 875 428.3 887.5 427.7L900 427L900 601L887.5 601C875 601 850 601 825 601C800 601 775 601 750 601C725 601 700 601 675 601C650 601 625 601 600 601C575 601 550 601 525 601C500 601 475 601 450 601C425 601 400 601 375 601C350 601 325 601 300 601C275 601 250 601 225 601C200 601 175 601 150 601C125 601 100 601 75 601C50 601 25 601 12.5 601L0 601Z" fill="#55088c"></path><path d="M0 489L12.5 487.8C25 486.7 50 484.3 75 491.2C100 498 125 514 150 513.5C175 513 200 496 225 497.5C250 499 275 519 300 527.2C325 535.3 350 531.7 375 526C400 520.3 425 512.7 450 512.2C475 511.7 500 518.3 525 519.8C550 521.3 575 517.7 600 514.5C625 511.3 650 508.7 675 506.5C700 504.3 725 502.7 750 507.5C775 512.3 800 523.7 825 521C850 518.3 875 501.7 887.5 493.3L900 485L900 601L887.5 601C875 601 850 601 825 601C800 601 775 601 750 601C725 601 700 601 675 601C650 601 625 601 600 601C575 601 550 601 525 601C500 601 475 601 450 601C425 601 400 601 375 601C350 601 325 601 300 601C275 601 250 601 225 601C200 601 175 601 150 601C125 601 100 601 75 601C50 601 25 601 12.5 601L0 601Z" fill="#4a037e"></path><path d="M0 558L12.5 552.5C25 547 50 536 75 536.2C100 536.3 125 547.7 150 557C175 566.3 200 573.7 225 574C250 574.3 275 567.7 300 561.2C325 554.7 350 548.3 375 540.5C400 532.7 425 523.3 450 518.3C475 513.3 500 512.7 525 523.3C550 534 575 556 600 561.8C625 567.7 650 557.3 675 553.5C700 549.7 725 552.3 750 557.3C775 562.3 800 569.7 825 572.7C850 575.7 875 574.3 887.5 573.7L900 573L900 601L887.5 601C875 601 850 601 825 601C800 601 775 601 750 601C725 601 700 601 675 601C650 601 625 601 600 601C575 601 550 601 525 601C500 601 475 601 450 601C425 601 400 601 375 601C350 601 325 601 300 601C275 601 250 601 225 601C200 601 175 601 150 601C125 601 100 601 75 601C50 601 25 601 12.5 601L0 601Z" fill="#3f0071"></path></svg>