<svg id="visual" viewBox="0 0 900 600" width="900" height="600" xmlns="http://www.w3.org/2000/svg" xmlns:xlink="http://www.w3.org/1999/xlink" version="1.1"><rect x="0" y="0" width="900" height="600" fill="#000"></rect><path d="M0 526L12.5 521.8C25 517.7 50 509.3 75 517.2C100 525 125 549 150 547.5C175 546 200 519 225 509.3C250 499.7 275 507.3 300 517.2C325 527 350 539 375 546.7C400 554.3 425 557.7 450 543.8C475 530 500 499 525 499.8C550 500.7 575 533.3 600 551.2C625 569 650 572 675 565.5C700 559 725 543 750 541.3C775 539.7 800 552.3 825 555.8C850 559.3 875 553.7 887.5 550.8L900 548L900 0L887.5 0C875 0 850 0 825 0C800 0 775 0 750 0C725 0 700 0 675 0C650 0 625 0 600 0C575 0 550 0 525 0C500 0 475 0 450 0C425 0 400 0 375 0C350 0 325 0 300 0C275 0 250 0 225 0C200 0 175 0 150 0C125 0 100 0 75 0C50 0 25 0 12.5 0L0 0Z" fill="#b931fc"></path><path d="M0 447L12.5 445.5C25 444 50 441 75 444.8C100 448.7 125 459.3 150 461.7C175 464 200 458 225 453C250 448 275 444 300 455.5C325 467 350 494 375 499.5C400 505 425 489 450 480.7C475 472.3 500 471.7 525 462.8C550 454 575 437 600 441.5C625 446 650 472 675 484.3C700 496.7 725 495.3 750 500.2C775 505 800 516 825 511.8C850 507.7 875 488.3 887.5 478.7L900 469L900 0L887.5 0C875 0 850 0 825 0C800 0 775 0 750 0C725 0 700 0 675 0C650 0 625 0 600 0C575 0 550 0 525 0C500 0 475 0 450 0C425 0 400 0 375 0C350 0 325 0 300 0C275 0 250 0 225 0C200 0 175 0 150 0C125 0 100 0 75 0C50 0 25 0 12.5 0L0 0Z" fill="#ab2cee"></path><path d="M0 465L12.5 450C25 435 50 405 75 398.5C100 392 125 409 150 413.3C175 417.7 200 409.3 225 405.5C250 401.7 275 402.3 300 403.3C325 404.3 350 405.7 375 416C400 426.3 425 445.7 450 447.3C475 449 500 433 525 427.3C550 421.7 575 426.3 600 422.8C625 419.3 650 407.7 675 402.7C700 397.7 725 399.3 750 404.2C775 409 800 417 825 417.8C850 418.7 875 412.3 887.5 409.2L900 406L900 0L887.5 0C875 0 850 0 825 0C800 0 775 0 750 0C725 0 700 0 675 0C650 0 625 0 600 0C575 0 550 0 525 0C500 0 475 0 450 0C425 0 400 0 375 0C350 0 325 0 300 0C275 0 250 0 225 0C200 0 175 0 150 0C125 0 100 0 75 0C50 0 25 0 12.5 0L0 0Z" fill="#9e27df"></path><path d="M0 383L12.5 384.8C25 386.7 50 390.3 75 383C100 375.7 125 357.3 150 354C175 350.7 200 362.3 225 374.7C250 387 275 400 300 396C325 392 350 371 375 357.2C400 343.3 425 336.7 450 333.5C475 330.3 500 330.7 525 332C550 333.3 575 335.7 600 349.3C625 363 650 388 675 399C700 410 725 407 750 408.5C775 410 800 416 825 418.5C850 421 875 420 887.5 419.5L900 419L900 0L887.5 0C875 0 850 0 825 0C800 0 775 0 750 0C725 0 700 0 675 0C650 0 625 0 600 0C575 0 550 0 525 0C500 0 475 0 450 0C425 0 400 0 375 0C350 0 325 0 300 0C275 0 250 0 225 0C200 0 175 0 150 0C125 0 100 0 75 0C50 0 25 0 12.5 0L0 0Z" fill="#9122d1"></path><path d="M0 363L12.5 349.7C25 336.3 50 309.7 75 299.7C100 289.7 125 296.3 150 300C175 303.7 200 304.3 225 306.5C250 308.7 275 312.3 300 310.3C325 308.3 350 300.7 375 304.8C400 309 425 325 450 333.2C475 341.3 500 341.7 525 333.7C550 325.7 575 309.3 600 311C625 312.7 650 332.3 675 334C700 335.7 725 319.3 750 323.8C775 328.3 800 353.7 825 356.3C850 359 875 339 887.5 329L900 319L900 0L887.5 0C875 0 850 0 825 0C800 0 775 0 750 0C725 0 700 0 675 0C650 0 625 0 600 0C575 0 550 0 525 0C500 0 475 0 450 0C425 0 400 0 375 0C350 0 325 0 300 0C275 0 250 0 225 0C200 0 175 0 150 0C125 0 100 0 75 0C50 0 25 0 12.5 0L0 0Z" fill="#841dc3"></path><path d="M0 291L12.5 292.2C25 293.3 50 295.7 75 298.5C100 301.3 125 304.7 150 302.5C175 300.3 200 292.7 225 281.7C250 270.7 275 256.3 300 259.5C325 262.7 350 283.3 375 287.3C400 291.3 425 278.7 450 271.3C475 264 500 262 525 262C550 262 575 264 600 266C625 268 650 270 675 266.2C700 262.3 725 252.7 750 252C775 251.3 800 259.7 825 268.7C850 277.7 875 287.3 887.5 292.2L900 297L900 0L887.5 0C875 0 850 0 825 0C800 0 775 0 750 0C725 0 700 0 675 0C650 0 625 0 600 0C575 0 550 0 525 0C500 0 475 0 450 0C425 0 400 0 375 0C350 0 325 0 300 0C275 0 250 0 225 0C200 0 175 0 150 0C125 0 100 0 75 0C50 0 25 0 12.5 0L0 0Z" fill="#7818b5"></path><path d="M0 242L12.5 235.5C25 229 50 216 75 215.3C100 214.7 125 226.3 150 229.2C175 232 200 226 225 226.7C250 227.3 275 234.7 300 232.7C325 230.7 350 219.3 375 225.8C400 232.3 425 256.7 450 255.7C475 254.7 500 228.3 525 220.3C550 212.3 575 222.7 600 221.8C625 221 650 209 675 211.2C700 213.3 725 229.7 750 230.3C775 231 800 216 825 219.8C850 223.7 875 246.3 887.5 257.7L900 269L900 0L887.5 0C875 0 850 0 825 0C800 0 775 0 750 0C725 0 700 0 675 0C650 0 625 0 600 0C575 0 550 0 525 0C500 0 475 0 450 0C425 0 400 0 375 0C350 0 325 0 300 0C275 0 250 0 225 0C200 0 175 0 150 0C125 0 100 0 75 0C50 0 25 0 12.5 0L0 0Z" fill="#6c13a7"></path><path d="M0 176L12.5 179.5C25 183 50 190 75 198.2C100 206.3 125 215.7 150 220C175 224.3 200 223.7 225 216.2C250 208.7 275 194.3 300 192.3C325 190.3 350 200.7 375 200C400 199.3 425 187.7 450 182.8C475 178 500 180 525 175.7C550 171.3 575 160.7 600 155C625 149.3 650 148.7 675 162.7C700 176.7 725 205.3 750 215.5C775 225.7 800 217.3 825 206.3C850 195.3 875 181.7 887.5 174.8L900 168L900 0L887.5 0C875 0 850 0 825 0C800 0 775 0 750 0C725 0 700 0 675 0C650 0 625 0 600 0C575 0 550 0 525 0C500 0 475 0 450 0C425 0 400 0 375 0C350 0 325 0 300 0C275 0 250 0 225 0C200 0 175 0 150 0C125 0 100 0 75 0C50 0 25 0 12.5 0L0 0Z" fill="#600e99"></path><path d="M0 134L12.5 133.3C25 132.7 50 131.3 75 129.2C100 127 125 124 150 130.8C175 137.7 200 154.3 225 156.8C250 159.3 275 147.7 300 137C325 126.3 350 116.7 375 120.2C400 123.7 425 140.3 450 153.5C475 166.7 500 176.3 525 172.8C550 169.3 575 152.7 600 140C625 127.3 650 118.7 675 114.8C700 111 725 112 750 121.5C775 131 800 149 825 158.7C850 168.3 875 169.7 887.5 170.3L900 171L900 0L887.5 0C875 0 850 0 825 0C800 0 775 0 750 0C725 0 700 0 675 0C650 0 625 0 600 0C575 0 550 0 525 0C500 0 475 0 450 0C425 0 400 0 375 0C350 0 325 0 300 0C275 0 250 0 225 0C200 0 175 0 150 0C125 0 100 0 75 0C50 0 25 0 12.5 0L0 0Z" fill="#55088c"></path><path d="M0 109L12.5 110.2C25 111.3 50 113.7 75 106.8C100 100 125 84 150 84.5C175 85 200 102 225 100.5C250 99 275 79 300 70.8C325 62.7 350 66.3 375 72C400 77.7 425 85.3 450 85.8C475 86.3 500 79.7 525 78.2C550 76.7 575 80.3 600 83.5C625 86.7 650 89.3 675 91.5C700 93.7 725 95.3 750 90.7C775 86 800 75 825 77.7C850 80.3 875 96.7 887.5 104.8L900 113L900 0L887.5 0C875 0 850 0 825 0C800 0 775 0 750 0C725 0 700 0 675 0C650 0 625 0 600 0C575 0 550 0 525 0C500 0 475 0 450 0C425 0 400 0 375 0C350 0 325 0 300 0C275 0 250 0 225 0C200 0 175 0 150 0C125 0 100 0 75 0C50 0 25 0 12.5 0L0 0Z" fill="#4a037e"></path><path d="M0 40L12.5 45.5C25 51 50 62 75 61.8C100 61.7 125 50.3 150 41C175 31.7 200 24.3 225 24C250 23.7 275 30.3 300 36.8C325 43.3 350 49.7 375 57.5C400 65.3 425 74.7 450 79.7C475 84.7 500 85.3 525 74.7C550 64 575 42 600 36.2C625 30.3 650 40.7 675 44.5C700 48.3 725 45.7 750 40.7C775 35.7 800 28.3 825 25.3C850 22.3 875 23.7 887.5 24.3L900 25L900 0L887.5 0C875 0 850 0 825 0C800 0 775 0 750 0C725 0 700 0 675 0C650 0 625 0 600 0C575 0 550 0 525 0C500 0 475 0 450 0C425 0 400 0 375 0C350 0 325 0 300 0C275 0 250 0 225 0C200 0 175 0 150 0C125 0 100 0 75 0C50 0 25 0 12.5 0L0 0Z" fill="#3f0071"></path></svg>