<svg id="visual" viewBox="0 0 900 600" width="900" height="600" xmlns="http://www.w3.org/2000/svg" xmlns:xlink="http://www.w3.org/1999/xlink" version="1.1"><rect x="0" y="0" width="900" height="600" fill="#FFFFFF"></rect><path d="M0 316L15 314C30 312 60 308 90 319.2C120 330.3 150 356.7 180 357.7C210 358.7 240 334.3 270 337.8C300 341.3 330 372.7 360 396C390 419.3 420 434.7 450 428.2C480 421.7 510 393.3 540 367.7C570 342 600 319 630 325C660 331 690 366 720 373.8C750 381.7 780 362.3 810 368.7C840 375 870 407 885 423L900 439L900 601L885 601C870 601 840 601 810 601C780 601 750 601 720 601C690 601 660 601 630 601C600 601 570 601 540 601C510 601 480 601 450 601C420 601 390 601 360 601C330 601 300 601 270 601C240 601 210 601 180 601C150 601 120 601 90 601C60 601 30 601 15 601L0 601Z" fill="#b931fc"></path><path d="M0 364L15 368.8C30 373.7 60 383.3 90 399.8C120 416.3 150 439.7 180 432.7C210 425.7 240 388.3 270 370.7C300 353 330 355 360 358.8C390 362.7 420 368.3 450 387.2C480 406 510 438 540 434.3C570 430.7 600 391.3 630 388.3C660 385.3 690 418.7 720 418.2C750 417.7 780 383.3 810 367.5C840 351.7 870 354.3 885 355.7L900 357L900 601L885 601C870 601 840 601 810 601C780 601 750 601 720 601C690 601 660 601 630 601C600 601 570 601 540 601C510 601 480 601 450 601C420 601 390 601 360 601C330 601 300 601 270 601C240 601 210 601 180 601C150 601 120 601 90 601C60 601 30 601 15 601L0 601Z" fill="#8d22c5"></path><path d="M0 486L15 492.8C30 499.7 60 513.3 90 502.7C120 492 150 457 180 447.5C210 438 240 454 270 453.3C300 452.7 330 435.3 360 422.7C390 410 420 402 450 401.7C480 401.3 510 408.7 540 424C570 439.3 600 462.7 630 470.8C660 479 690 472 720 479C750 486 780 507 810 504.2C840 501.3 870 474.7 885 461.3L900 448L900 601L885 601C870 601 840 601 810 601C780 601 750 601 720 601C690 601 660 601 630 601C600 601 570 601 540 601C510 601 480 601 450 601C420 601 390 601 360 601C330 601 300 601 270 601C240 601 210 601 180 601C150 601 120 601 90 601C60 601 30 601 15 601L0 601Z" fill="#641490"></path><path d="M0 471L15 469.3C30 467.7 60 464.3 90 463C120 461.7 150 462.3 180 464.2C210 466 240 469 270 471.7C300 474.3 330 476.7 360 490.3C390 504 420 529 450 536.7C480 544.3 510 534.7 540 521.2C570 507.7 600 490.3 630 486.3C660 482.3 690 491.7 720 496.8C750 502 780 503 810 499.3C840 495.7 870 487.3 885 483.2L900 479L900 601L885 601C870 601 840 601 810 601C780 601 750 601 720 601C690 601 660 601 630 601C600 601 570 601 540 601C510 601 480 601 450 601C420 601 390 601 360 601C330 601 300 601 270 601C240 601 210 601 180 601C150 601 120 601 90 601C60 601 30 601 15 601L0 601Z" fill="#3e065f"></path></svg>